<svg width="45" height="34" viewBox="0 0 45 34" fill="none" xmlns="http://www.w3.org/2000/svg">
<path fill-rule="evenodd" clip-rule="evenodd" d="M43.9855 33L24.5 1.5L4.99998 33H24.4928L24.5 1.5C24.5 1.5 26.8954 7.47593 27 11.5C27.0264 12.514 26.8776 13.3154 26.7312 14.1034C26.5664 14.991 26.4047 15.8616 26.5 17C26.6445 18.7273 27.1164 19.8884 27.646 21.1916C27.9278 21.8852 28.2261 22.6191 28.5 23.5C29.6553 27.2151 31.5 33 31.5 33H43.9855Z" fill="#FF9900"/>
<path d="M24.5 1.5L24.4928 33H31.5C31.5 33 29.6553 27.2151 28.5 23.5C28.2261 22.6191 27.9278 21.8852 27.646 21.1916C27.1164 19.8884 26.6445 18.7273 26.5 17C26.4047 15.8616 26.5664 14.991 26.7312 14.1034C26.8776 13.3154 27.0264 12.514 27 11.5C26.8954 7.47593 24.5 1.5 24.5 1.5Z" fill="#FF9900"/>
<path d="M24.5 1.5L24.4928 33H31.5C31.5 33 29.6553 27.2151 28.5 23.5C28.2261 22.6191 27.9278 21.8852 27.646 21.1916C27.1164 19.8884 26.6445 18.7273 26.5 17C26.4047 15.8616 26.5664 14.991 26.7312 14.1034C26.8776 13.3154 27.0264 12.514 27 11.5C26.8954 7.47593 24.5 1.5 24.5 1.5Z" fill="black"/>
<path d="M4.99998 33L24.5 1.5L20.5 1L1 30.5L4.99998 33Z" fill="#FF9900"/>
<path d="M4.99998 33L24.5 1.5L20.5 1L1 30.5L4.99998 33Z" fill="black" fill-opacity="0.2"/>
<path d="M24.5 1.5L43.9855 33H31.5M24.5 1.5L4.99998 33M24.5 1.5L20.5 1L1 30.5L4.99998 33M24.5 1.5L24.4928 33M24.5 1.5C24.5 1.5 26.8954 7.47593 27 11.5C27.0264 12.514 26.8776 13.3154 26.7312 14.1034C26.5664 14.991 26.4047 15.8616 26.5 17C26.6445 18.7273 27.1164 19.8884 27.646 21.1916C27.9278 21.8852 28.2261 22.6191 28.5 23.5C29.6553 27.2151 31.5 33 31.5 33M4.99998 33H24.4928M24.4928 33H31.5" stroke="black" stroke-width="0.2"/>
</svg>
